# xmcd
#
# Track frame offsets:
#	183
#	19838
#	37475
#	54940
#	72518
#
# Disc length: 1197 seconds
#
# Revision: 0
# Processed by: cddbd v1.5.1PL0 Copyright (c) Steve Scherf et al.
# Submitted via: dBpowerAMP V4.0
#
DISCID=4504ab05
DTITLE=MYSTIC EYES - The Rain
DYEAR=1996
DGENRE=Dance
TTITLE0=MYSTIC EYES - The rain - original
TTITLE1=MYSTIC EYES - The rain - Hall Mix
TTITLE2=MYSTIC EYES - Face 2 face - Original mix
TTITLE3=MYSTIC EYES - Face 2 face - Acid Jazz mix
TTITLE4=MYSTIC EYES - Face 2 face - Club mix
EXTD=Dance Music (SPAIN)
EXTT0=
EXTT1=
EXTT2=
EXTT3=
EXTT4=
PLAYORDER=
